<?xml version="1.0" encoding="UTF-8"?>
<svg version="1.1" xmlns="http://www.w3.org/2000/svg" width="1024" height="1024">
<path d="M0 0 C337.92 0 675.84 0 1024 0 C1024 337.92 1024 675.84 1024 1024 C686.08 1024 348.16 1024 0 1024 C0 686.08 0 348.16 0 0 Z " fill="#FCFDFD" transform="translate(0,0)"/>
<path d="M0 0 C5.94070658 -0.09953497 11.88091827 -0.17178154 17.82226562 -0.21972656 C19.83960435 -0.23973216 21.8568859 -0.2669456 23.87402344 -0.30175781 C26.78855573 -0.35076577 29.70231559 -0.37307964 32.6171875 -0.390625 C33.50614716 -0.41127014 34.39510681 -0.43191528 35.31100464 -0.45318604 C43.65139734 -0.45611561 50.84308328 1.74975346 57.125 7.375 C60.85608011 12.09631938 60.86086555 16.79920096 60.56640625 22.64453125 C59.51136145 28.89476217 56.43653602 32.69356768 52 37 C52.77923828 37.38478516 52.77923828 37.38478516 53.57421875 37.77734375 C59.47302842 41.01569213 62.72784886 44.62130047 65 51 C66.28337939 57.10131187 64.79641518 61.77780693 61.53515625 66.9921875 C56.58655914 73.46439848 49.8411346 75.6834976 42 77 C35.91287145 77.43506533 29.80654868 77.34931882 23.70800781 77.28125 C20.84687454 77.24968976 17.98629127 77.2402303 15.125 77.234375 C13.30988903 77.22521938 11.4947837 77.21484826 9.6796875 77.203125 C8.82253143 77.19887512 7.96537537 77.19462524 7.08224487 77.19024658 C1.11726692 77.11726692 1.11726692 77.11726692 0 76 C-0.09494733 73.62699131 -0.12559319 71.28321297 -0.11352539 68.90991211 C-0.11367142 68.16849472 -0.11381744 67.42707733 -0.1139679 66.66319275 C-0.11326865 64.20121379 -0.10547574 61.73930957 -0.09765625 59.27734375 C-0.09579211 57.57483461 -0.09436819 55.87232493 -0.09336853 54.16981506 C-0.08954302 49.68006927 -0.07971247 45.19035562 -0.06866455 40.70062256 C-0.05845113 36.12268509 -0.05387106 31.54474244 -0.04882812 26.96679688 C-0.03809022 17.97785043 -0.02101341 8.98892788 0 0 Z " fill="#1F3061" transform="translate(434,448)"/>
<path d="M0 0 C4.81002014 1.43995646 7.71095554 4.3357525 11.11328125 7.85546875 C11.68652634 8.43533035 12.25977142 9.01519196 12.85038757 9.61262512 C14.67836069 11.46392369 16.49588247 13.3250631 18.3125 15.1875 C20.70059027 17.62228388 23.09286116 20.05289649 25.48828125 22.48046875 C26.0634549 23.06359833 26.63862854 23.64672791 27.23123169 24.24752808 C34.07586369 31.1996503 34.07586369 31.1996503 41.75517273 37.17675781 C44.54648279 39.20668891 46.64570077 40.75187934 47.61170959 44.15492249 C47.80893871 46.72225646 47.78829978 49.20069007 47.68359375 51.7734375 C47.67368912 52.6971817 47.66378448 53.6209259 47.65357971 54.57266235 C47.61455114 57.50842501 47.52675601 60.44037773 47.4375 63.375 C47.402371 65.37103955 47.37043477 67.36713802 47.34179688 69.36328125 C47.2648273 74.2436441 47.14412832 79.12117734 47 84 C46.51965805 83.58817474 46.0393161 83.17634949 45.54441833 82.75204468 C44.91415237 82.21173615 44.28388641 81.67142761 43.63452148 81.11474609 C43.00980453 80.57917084 42.38508759 80.04359558 41.74143982 79.49179077 C40.44480406 78.38103791 39.14663012 77.27208014 37.84765625 76.1640625 C33.71109762 72.59775156 29.83103759 68.85964755 26 64.96875 C23.43953736 62.44829459 20.73234457 60.12895475 18.0078125 57.7890625 C15.17995116 55.269295 12.5546404 52.56538571 9.8984375 49.8671875 C7.39067887 47.40070885 4.74551069 45.19640856 2 43 C-2.09772657 44.60982115 -4.76485294 47.57605826 -7.75 50.6875 C-11.65197575 54.72883203 -15.67710553 58.50958817 -19.9296875 62.18139648 C-24.13322222 65.87386466 -28.14212644 69.78205293 -32.17578125 73.65820312 C-32.84222656 74.29048828 -33.50867188 74.92277344 -34.1953125 75.57421875 C-34.78328613 76.13713623 -35.37125977 76.70005371 -35.97705078 77.2800293 C-38.50478656 79.42918433 -41.21623067 81.20017035 -44 83 C-44.17367611 77.28930037 -44.30036236 71.58015315 -44.38452148 65.86743164 C-44.41961881 63.92640389 -44.46731091 61.98555982 -44.52807617 60.04516602 C-44.61347504 57.24709712 -44.65279337 54.45148272 -44.68359375 51.65234375 C-44.71972275 50.7916478 -44.75585175 49.93095184 -44.79307556 49.04417419 C-44.7962247 44.15818622 -44.16762664 41.62070915 -40.67993164 38.08813477 C-39.47494819 37.03348331 -38.24816898 36.00316948 -37 35 C-35.81103429 33.98087416 -34.62335252 32.96024667 -33.4375 31.9375 C-32.77621094 31.36902344 -32.11492187 30.80054688 -31.43359375 30.21484375 C-28.17758424 27.25150925 -25.09616423 24.12885005 -22 21 C-17.71494522 16.66970843 -13.40656683 12.47043563 -8.75390625 8.53125 C-5.68007816 5.84764062 -2.84368541 2.92366406 0 0 Z " fill="#0596D6" transform="translate(309,440)"/>
<path d="M0 0 C3.25207092 1.41738489 5.31361067 3.12526412 7.75 5.6875 C10.37003337 8.38004352 13.01574183 10.93826379 15.875 13.375 C19.06682509 16.11621449 22.04302977 19.00685888 25 22 C27.93661618 24.97248325 30.8896408 27.84380752 34.0625 30.5625 C34.65554932 31.09431885 35.24859863 31.6261377 35.85961914 32.17407227 C37.96667946 34.04280081 37.96667946 34.04280081 40.33349609 35.56396484 C43.80553123 38.24304392 46.50136427 40.72715103 47.47323608 45.15707397 C48.13506596 51.45061895 47.81883747 57.75294383 47.5625 64.0625 C47.51730122 65.99665156 47.47624611 67.93090465 47.43945312 69.86523438 C47.34081634 74.57935047 47.1858404 79.28854869 47 84 C45.8856877 83.04605712 44.77154397 82.09191733 43.6574707 81.13769531 C43.0370137 80.60638 42.4165567 80.0750647 41.77729797 79.52764893 C35.02937461 73.72757599 28.62361387 67.66448661 22.3671875 61.33984375 C19.70288873 58.70632071 16.9377444 56.24073188 14.09375 53.8046875 C9.99896925 50.27523095 6.01067313 46.62439928 2 43 C-1.14755883 44.40401312 -3.37145493 46.07846036 -5.86328125 48.44921875 C-6.58580078 49.13306641 -7.30832031 49.81691406 -8.05273438 50.52148438 C-9.17131836 51.59366211 -9.17131836 51.59366211 -10.3125 52.6875 C-11.04662109 53.38294922 -11.78074219 54.07839844 -12.53710938 54.79492188 C-16.00292155 58.08851978 -19.43006694 61.41378122 -22.80078125 64.8046875 C-25.08973661 67.10675445 -27.40677195 69.32579378 -29.875 71.4375 C-33.70537891 74.73567362 -37.46514466 78.10657159 -41.21484375 81.49609375 C-43 83 -43 83 -44 83 C-44.32439528 77.38124337 -44.55855241 71.76805778 -44.71411133 66.14208984 C-44.77900576 64.23454789 -44.86737012 62.32764043 -44.98071289 60.42236328 C-45.94713121 43.74399469 -45.94713121 43.74399469 -41.2878418 38.23364258 C-38.5916711 35.5705658 -35.65318251 33.30986281 -32.55825806 31.13079834 C-30.55685428 29.67841755 -28.87098006 28.01874248 -27.16796875 26.23046875 C-26.66434814 25.71846924 -26.16072754 25.20646973 -25.6418457 24.67895508 C-25.16191162 24.1867749 -24.68197754 23.69459473 -24.1875 23.1875 C-20.25282953 19.20103432 -16.2628728 15.39033218 -11.98828125 11.765625 C-7.8006869 8.0469754 -3.92223603 3.99457235 0 0 Z " fill="#0596D6" transform="translate(309,501)"/>
<path d="M0 0 C6.44512345 4.54420571 11.00553714 10.75078841 13.3125 18.3125 C14.30025047 27.32572308 12.81803984 35.02881462 7.625 42.5 C1.88084749 49.5849252 -4.67351787 53.71238483 -13.6875 55.3125 C-23.64426913 56.32505279 -31.97666792 54.43206652 -39.83203125 48.11328125 C-46.3474621 41.78988415 -49.65118002 34.49286666 -50 25.4375 C-49.7733458 16.63798392 -46.68115732 9.72557803 -40.6875 3.3125 C-28.5278809 -7.81493611 -13.95285048 -8.54874145 0 0 Z " fill="#1E2F60" transform="translate(798.6875,470.6875)"/>
<path d="M0 0 C1.24837646 0.01027222 1.24837646 0.01027222 2.52197266 0.02075195 C10.23302223 0.22295685 15.28169435 1.86285548 21.3125 6.6875 C26.61796713 13.3572301 28.08939742 18.95851891 27.890625 27.40625 C27.88496521 28.32716431 27.87930542 29.24807861 27.87347412 30.19689941 C27.85125236 33.11098307 27.80108383 36.02379397 27.75 38.9375 C27.7299166 40.92446129 27.71166906 42.91144204 27.6953125 44.8984375 C27.6514343 49.74527499 27.58250689 54.59117242 27.5 59.4375 C22.55 59.4375 17.6 59.4375 12.5 59.4375 C12.17 57.7875 11.84 56.1375 11.5 54.4375 C10.200625 55.365625 10.200625 55.365625 8.875 56.3125 C2.28467981 60.46196086 -3.81848321 61.32005725 -11.5 60.4375 C-16.87197832 58.78389602 -20.40993678 56.19144341 -23.5 51.4375 C-23.9125 50.839375 -24.325 50.24125 -24.75 49.625 C-26.65356158 44.07294539 -25.75910527 38.54856863 -23.5390625 33.2578125 C-21.02987613 28.86201985 -16.4749142 25.77172237 -11.81640625 23.9375 C-3.67626282 22.180437 4.65478845 22.89993802 12.5 25.4375 C11.68649187 21.59182521 11.11265714 19.05561754 8.30859375 16.2265625 C2.26271599 12.37536359 -6.06676125 13.96220373 -12.8125 15.4375 C-14.029375 15.7675 -15.24625 16.0975 -16.5 16.4375 C-17.03394179 15.0257217 -17.55165104 13.60779756 -18.0625 12.1875 C-18.35253906 11.39859375 -18.64257812 10.6096875 -18.94140625 9.796875 C-19.57066806 7.13901391 -19.50643373 5.9571933 -18.5 3.4375 C-12.98487944 0.15376489 -6.25383262 -0.07923465 0 0 Z " fill="#1F2F5F" transform="translate(531.5,465.5625)"/>
<path d="M0 0 C7.53085497 4.01114321 10.71404256 9.52809923 14.21484375 17.1796875 C15.21484375 21.1796875 15.21484375 21.1796875 15.21484375 33.1796875 C1.35484375 33.1796875 -12.50515625 33.1796875 -26.78515625 33.1796875 C-22.88453094 40.58504022 -22.88453094 40.58504022 -16.78515625 44.1796875 C-10.2047007 44.99835835 -5.16899916 44.5684593 0.4609375 40.95703125 C2.21484375 40.1796875 2.21484375 40.1796875 4.234375 40.3359375 C6.69865194 41.38580696 7.79883794 42.65968024 9.46484375 44.7421875 C10.24601563 45.70318359 10.24601563 45.70318359 11.04296875 46.68359375 C11.4296875 47.17730469 11.81640625 47.67101562 12.21484375 48.1796875 C4.04471199 55.85315471 -3.71175764 58.56357595 -14.94921875 58.3828125 C-23.82110559 57.74736055 -29.98740983 53.86507339 -35.78515625 47.1796875 C-41.10286174 38.73466473 -42.6737148 31.10401043 -41.78515625 21.1796875 C-40.88276411 17.87435401 -39.53997022 15.1135171 -37.78515625 12.1796875 C-37.37265625 11.47972656 -36.96015625 10.77976562 -36.53515625 10.05859375 C-28.17637616 -2.50332292 -13.50502508 -6.18713629 0 0 Z " fill="#1E2F60" transform="translate(725.78515625,467.8203125)"/>
<path d="M0 0 C2.3828125 1.63671875 2.3828125 1.63671875 4 3 C2.84414715 6.91211733 1.64465038 9.8745041 -1 13 C-1.60328125 12.79503906 -2.2065625 12.59007812 -2.828125 12.37890625 C-3.62734375 12.10949219 -4.4265625 11.84007812 -5.25 11.5625 C-6.03890625 11.29566406 -6.8278125 11.02882813 -7.640625 10.75390625 C-12.65531935 9.15152875 -16.73244536 8.82729329 -22 9 C-23.24660324 10.05054601 -23.24660324 10.05054601 -23.375 12.375 C-23.25125 13.24125 -23.1275 14.1075 -23 15 C-18.47075255 18.31387024 -13.13898415 19.86317978 -7.8828125 21.66210938 C-2.90541338 23.44176434 1.19826294 25.37632247 4.29296875 29.8828125 C6.16255024 35.48122779 5.68094409 41.99300691 3.8125 47.5 C0.34036186 52.28915606 -4.21671829 55.60162446 -10 57 C-20.53815327 58.21950956 -30.56360475 56.53521579 -39.3671875 50.33203125 C-39.90601563 49.89246094 -40.44484375 49.45289063 -41 49 C-39.66511872 45.40608886 -38.03977277 42.24509304 -36 39 C-32.54342374 39.44600984 -29.89024961 40.51816819 -26.8125 42.0625 C-21.93043179 44.31135889 -17.3177959 44.82550622 -12 44 C-11.01 43.34 -10.02 42.68 -9 42 C-9.11341534 39.59122743 -9.11341534 39.59122743 -10 37 C-13.58961123 34.4136558 -17.13168886 33.263941 -21.375 32.125 C-28.07760576 30.12331683 -32.67639223 28.14811375 -36.9375 22.375 C-38.86905438 16.23947433 -39.17734011 10.3982854 -36.3125 4.5625 C-25.93738906 -6.93424455 -13.4470586 -5.44806304 0 0 Z " fill="#1E2F60" transform="translate(671,469)"/>
<path d="M0 0 C4.95 0 9.9 0 15 0 C15 26.4 15 52.8 15 80 C10.05 80 5.1 80 0 80 C0 53.6 0 27.2 0 0 Z " fill="#21305E" transform="translate(574,445)"/>
<path d="M0 0 C4.95 0 9.9 0 15 0 C15 19.14 15 38.28 15 58 C10.05 58 5.1 58 0 58 C0 38.86 0 19.72 0 0 Z " fill="#20315E" transform="translate(605,467)"/>
<path d="M0 0 C3.69273313 1.84237873 6.37702637 4.44823313 8.203125 8.15625 C9.88905085 13.66755145 10.22392579 19.56872006 7.66015625 24.8203125 C5.16048466 28.30335743 2.93900292 30.79506812 -1.12890625 32.33984375 C-5.94732214 33.04663536 -10.90456428 33.43257118 -15.36328125 31.2421875 C-20.64513934 27.00992941 -22.78009376 22.08674211 -23.62890625 15.40234375 C-23.38352974 9.38477693 -19.75384159 5.25153238 -16.00390625 0.83984375 C-10.98704371 -1.77764975 -5.37888554 -1.66794799 0 0 Z " fill="#F8F8F8" transform="translate(787.12890625,479.66015625)"/>
<path d="M0 0 C3.85459456 -0.08124438 7.70746115 -0.14062344 11.5625 -0.1875 C12.64853516 -0.21263672 13.73457031 -0.23777344 14.85351562 -0.26367188 C21.01072598 -0.31981665 25.6358537 -0.15667868 31 3 C33.50031654 6.75047482 33.53603554 8.55856266 33 13 C30.8272578 15.63016161 29.05326212 17.47336894 26 19 C24.0406396 19.08510205 22.07837206 19.10717656 20.1171875 19.09765625 C18.95058594 19.09443359 17.78398437 19.09121094 16.58203125 19.08789062 C15.35871094 19.07951172 14.13539063 19.07113281 12.875 19.0625 C11.64394531 19.05798828 10.41289062 19.05347656 9.14453125 19.04882812 C6.09633361 19.03701341 3.04816084 19.0190775 0 19 C0 12.73 0 6.46 0 0 Z " fill="#F7F8F9" transform="translate(450,492)"/>
<path d="M0 0 C3.56295812 -0.08104454 7.12406707 -0.14052442 10.6875 -0.1875 C11.69490234 -0.21263672 12.70230469 -0.23777344 13.74023438 -0.26367188 C23.1579348 -0.35691643 23.1579348 -0.35691643 27 3 C29 6 29 6 28.9375 9.4375 C28 13 28 13 26.1796875 15.20703125 C21.30966661 17.95314868 16.67175537 17.4242097 11.1875 17.25 C10.11306641 17.23195313 9.03863281 17.21390625 7.93164062 17.1953125 C5.28737679 17.14830337 2.64357317 17.07656366 0 17 C0 11.39 0 5.78 0 0 Z " fill="#FBFCFC" transform="translate(450,462)"/>
<path d="M0 0 C3.31854367 1.50273676 5.43007847 2.57110584 6.81640625 6.046875 C7.31365062 8.00803463 7.6673855 10.00431299 8 12 C8.66 11.67 9.32 11.34 10 11 C9.27226846 15.35693818 7.23827212 17.04339773 3.89453125 19.7265625 C1.16362991 21.56217866 -0.70676629 22.06860904 -4 22 C-8.34986291 20.5500457 -10.4325645 19.85115325 -13 16 C-13.71207438 11.11483856 -13.72852643 7.1899265 -11.125 2.9375 C-7.45876108 -0.40524725 -4.92149867 -0.41012489 0 0 Z " fill="#F56D4E" transform="translate(313,403)"/>
<path d="M0 0 C0.61002179 7.19825708 0.61002179 7.19825708 -2.1875 10.875 C-7.14388419 14.61982361 -10.76995493 15.45309419 -17 15 C-20.38031589 13.81232145 -20.93216817 13.10174775 -23 10 C-23 5.48420659 -22.44933817 3.52797235 -19.5 0.0625 C-13.62255976 -4.2222526 -6.36323733 -2.16620845 0 0 Z " fill="#F5F5F7" transform="translate(544,500)"/>
<path d="M0 0 C4.41116385 2.20558192 6.96872431 4.48605402 9 9 C9 10.32 9 11.64 9 13 C0.42 13 -8.16 13 -17 13 C-15.81717309 4.72021163 -15.81717309 4.72021163 -11.09765625 1.10546875 C-7.39264994 -0.84707647 -4.04535843 -0.86212557 0 0 Z " fill="#F8F9FA" transform="translate(717,478)"/>
<path d="M0 0 C5.61 0 11.22 0 17 0 C17 4.62 17 9.24 17 14 C11.39 14 5.78 14 0 14 C0 9.38 0 4.76 0 0 Z " fill="#273565" transform="translate(604,445)"/>
<path d="M0 0 C2.97 0 5.94 0 9 0 C9 0.33 9 0.66 9 1 C6.03 1 3.06 1 0 1 C0 0.67 0 0.34 0 0 Z M0 1 C-2.8956414 4.32462531 -4.69268237 5.30151606 -9 6 C-9.33 6.66 -9.66 7.32 -10 8 C-10.99 8.33 -11.98 8.66 -13 9 C-14.42857119 10.40105576 -14.42857119 10.40105576 -15.6875 12.0625 C-16.450625 13.031875 -17.21375 14.00125 -18 15 C-19 12 -19 12 -18.125 9.6875 C-13.36420984 3.66650068 -7.74255371 0.01158889 0 1 Z M-12 8 C-11.01 8.495 -11.01 8.495 -10 9 C-10.99 9.495 -10.99 9.495 -12 10 C-12 9.34 -12 8.68 -12 8 Z " fill="#15275E" transform="translate(775,466)"/>
<path d="M0 0 C2.31 0.66 4.62 1.32 7 2 C7 2.66 7 3.32 7 4 C5.68 4 4.36 4 3 4 C2.9175 4.53625 2.835 5.0725 2.75 5.625 C1.46226198 9.70283705 -0.99660004 12.99660004 -4 16 C-4.99 15.67 -5.98 15.34 -7 15 C-6.36771484 14.38125 -6.36771484 14.38125 -5.72265625 13.75 C-1.40797978 9.20182339 -0.2196833 6.26097416 0 0 Z M-2 1 C-1.34 1.33 -0.68 1.66 0 2 C-0.66 3.32 -1.32 4.64 -2 6 C-2.33 5.01 -2.66 4.02 -3 3 C-2.67 2.34 -2.34 1.68 -2 1 Z " fill="#FCDED0" transform="translate(328,412)"/>
<path d="M0 0 C1.09506492 3.28519475 1.09960608 5.73663415 1.0625 9.1875 C1.05347656 10.27417969 1.04445313 11.36085938 1.03515625 12.48046875 C1.02355469 13.31191406 1.01195312 14.14335937 1 15 C0.01 15.33 -0.98 15.66 -2 16 C-2.05384521 13.70858714 -2.09272087 11.41681812 -2.125 9.125 C-2.14820313 7.84882813 -2.17140625 6.57265625 -2.1953125 5.2578125 C-2 2 -2 2 0 0 Z " fill="#1A2956" transform="translate(687,489)"/>
<path d="M0 0 C0.99 0.33 1.98 0.66 3 1 C1.25 7.75 1.25 7.75 -1 10 C-1.46162427 12.43252661 -1.46162427 12.43252661 -1.625 15.125 C-1.73714844 16.49011719 -1.73714844 16.49011719 -1.8515625 17.8828125 C-1.90054688 18.58148438 -1.94953125 19.28015625 -2 20 C-2.33 20 -2.66 20 -3 20 C-3.33452052 12.56621057 -3.13902852 6.80122845 0 0 Z " fill="#445275" transform="translate(687,481)"/>
<path d="M0 0 C0.33 0.66 0.66 1.32 1 2 C-1.64 4.31 -4.28 6.62 -7 9 C-7.66 8.34 -8.32 7.68 -9 7 C-7.87720538 6.01830524 -6.75168527 5.03972702 -5.625 4.0625 C-4.68527344 3.24458984 -4.68527344 3.24458984 -3.7265625 2.41015625 C-2 1 -2 1 0 0 Z " fill="#243766" transform="translate(700,468)"/>
<path d="M0 0 C2.31 0.66 4.62 1.32 7 2 C7 2.66 7 3.32 7 4 C4.03 3.505 4.03 3.505 1 3 C0.67 2.01 0.34 1.02 0 0 Z M-2 1 C-1.34 1.33 -0.68 1.66 0 2 C-0.66 3.32 -1.32 4.64 -2 6 C-2.33 5.01 -2.66 4.02 -3 3 C-2.67 2.34 -2.34 1.68 -2 1 Z " fill="#EFD6CB" transform="translate(328,412)"/>
<path d="M0 0 C1 2 1 2 0.3125 5.0625 C-1 8 -1 8 -3.125 8.875 C-3.74375 8.91625 -4.3625 8.9575 -5 9 C-3.90931332 5.22454612 -3.0916909 2.52956528 0 0 Z " fill="#283765" transform="translate(512,494)"/>
<path d="M0 0 C0.33 0.99 0.66 1.98 1 3 C0.01 3.33 -0.98 3.66 -2 4 C-2 4.66 -2 5.32 -2 6 C-3.98 6.99 -3.98 6.99 -6 8 C-5.65120368 4.74456771 -4.97866739 3.98126893 -2.4375 1.75 C-1.633125 1.1725 -0.82875 0.595 0 0 Z " fill="#1E305D" transform="translate(641,468)"/>
<path d="M0 0 C0.66 0 1.32 0 2 0 C0.61122646 3.35620271 -0.91677965 5.07298728 -4 7 C-4.66 7 -5.32 7 -6 7 C-5.25 5.0625 -5.25 5.0625 -4 3 C-1.875 2.25 -1.875 2.25 0 2 C0 1.34 0 0.68 0 0 Z " fill="#2A3F6B" transform="translate(493,514)"/>
<path d="M0 0 C2.1875 0.3125 2.1875 0.3125 4 1 C1.03 3.475 1.03 3.475 -2 6 C-2.33 5.01 -2.66 4.02 -3 3 C-1.75 1.4375 -1.75 1.4375 0 0 Z " fill="#273C6E" transform="translate(800,515)"/>
<path d="M0 0 C0.66 0 1.32 0 2 0 C4 3 4 3 3.625 6.1875 C3.41875 7.115625 3.2125 8.04375 3 9 C0.87491756 5.81237635 0.4979837 3.73487777 0 0 Z " fill="#182953" transform="translate(512,470)"/>
<path d="M0 0 C0.99 0.33 1.98 0.66 3 1 C1.37660195 2.70884005 -0.29319053 4.37446717 -2 6 C-2.66 6 -3.32 6 -4 6 C-4 5.01 -4 4.02 -4 3 C-2.1875 1.25 -2.1875 1.25 0 0 Z " fill="#34A3D6" transform="translate(297,491)"/>
<path d="M0 0 C1.98 0 3.96 0 6 0 C3.82575883 2.50037734 2.26954202 3.43628586 -1 4 C-0.67 2.68 -0.34 1.36 0 0 Z " fill="#253C6D" transform="translate(728,519)"/>
<path d="M0 0 C1.32 0.66 2.64 1.32 4 2 C-0.75 5 -0.75 5 -3 5 C-1.125 1.125 -1.125 1.125 0 0 Z " fill="#223B6D" transform="translate(667,519)"/>
</svg>
