<?xml version="1.0" encoding="UTF-8"?>
<svg version="1.1" xmlns="http://www.w3.org/2000/svg" width="1024" height="1024">
<path d="M0 0 C337.92 0 675.84 0 1024 0 C1024 337.92 1024 675.84 1024 1024 C686.08 1024 348.16 1024 0 1024 C0 686.08 0 348.16 0 0 Z " fill="#FDFEFE" transform="translate(0,0)"/>
<path d="M0 0 C3.22063562 0.27902112 4.86254436 1.49489006 7.08105469 3.75634766 C7.65555359 4.33430084 8.23005249 4.91225403 8.82196045 5.50772095 C9.73766815 6.45136002 9.73766815 6.45136002 10.671875 7.4140625 C11.63374725 8.38585953 11.63374725 8.38585953 12.61505127 9.37728882 C14.66724895 11.45288695 16.70906238 13.53833383 18.75 15.625 C20.77827424 17.68856118 22.8087334 19.74989959 24.84210205 21.80844116 C26.10549344 23.08853865 27.36577057 24.3717206 28.62225342 25.65859985 C32.31361824 29.41132068 36.13185433 32.93906363 40.13397217 36.35910034 C44.07622814 39.82574021 47.68429713 43.6460718 51.35546875 47.39453125 C54.41519886 50.49274853 57.50444212 53.47941099 60.8125 56.3125 C66.954303 61.60839027 72.53318558 67.49062009 78.22265625 73.26171875 C83.31421407 78.39774432 88.49575892 83.31012484 94 88 C95.7772169 89.7772169 95.11988099 92.152472 95.12442017 94.51863098 C95.12082489 95.30984848 95.11722961 96.10106598 95.11352539 96.91625977 C95.11367142 97.74545929 95.11381744 98.57465881 95.1139679 99.4289856 C95.11326851 102.18315198 95.10547493 104.93725161 95.09765625 107.69140625 C95.09579216 109.59569766 95.09436822 111.49998955 95.09336853 113.40428162 C95.08954263 118.42667963 95.07971173 123.44904892 95.06866455 128.47143555 C95.05845198 133.5922812 95.05387124 138.71313148 95.04882812 143.83398438 C95.03808953 153.88933557 95.02101224 163.9446654 95 174 C91.29557746 172.26798575 88.95482865 170.17198443 86.078125 167.23828125 C85.61444519 166.76939987 85.15076538 166.30051849 84.67303467 165.81742859 C83.19382975 164.32048402 81.72147299 162.81704251 80.25 161.3125 C78.32120693 159.34678762 76.38914456 157.38437697 74.453125 155.42578125 C73.98169067 154.94875763 73.51025635 154.47173401 73.02453613 153.98025513 C69.76990444 150.71162303 66.39136213 147.65463794 62.88574219 144.66088867 C58.71209958 140.98490594 54.892391 136.92935176 51 132.9609375 C47.05417823 128.96887563 43.00286017 125.19045183 38.75 121.52734375 C36.73749029 119.77088996 34.85508105 117.92133395 33 116 C30.50060236 113.46185201 27.96218208 111.05871697 25.25 108.75 C21.07195379 105.1652858 17.24408827 101.27299289 13.37890625 97.359375 C9.74255791 93.69505475 5.9983749 90.27139765 2 87 C-1.006818 88.33999498 -2.99762609 89.79845291 -5.25 92.1875 C-7.64051309 94.65382217 -10.06840583 96.96589829 -12.6875 99.1875 C-16.30139763 102.29615369 -19.65286202 105.61115314 -23 109 C-26.22396615 112.26384204 -29.43517979 115.46830253 -32.9375 118.4375 C-37.23094262 122.08558173 -41.1472711 126.09207511 -45.08178711 130.11889648 C-47.89636425 132.97886299 -50.76715816 135.69830327 -53.8125 138.3125 C-58.62014411 142.46685658 -63.04526334 146.97375873 -67.5 151.5 C-73.15066165 157.24136248 -78.85929816 162.78468764 -85 168 C-86.2471209 169.06792031 -87.49383755 170.13631282 -88.74023438 171.20507812 C-89.35523804 171.73234497 -89.9702417 172.25961182 -90.60388184 172.80285645 C-91.06460083 173.19791382 -91.52531982 173.59297119 -92 174 C-92.39647973 163.21233506 -92.69720978 152.42644108 -92.88080692 141.63293552 C-92.96900073 136.61877626 -93.08824933 131.60965011 -93.2824707 126.59838867 C-94.67520223 89.70494223 -94.67520223 89.70494223 -86.23326111 80.28953552 C-83.38032338 77.71569961 -80.4593789 75.50197052 -77.21432495 73.44723511 C-71.26961529 69.56190088 -66.22181928 64.34752037 -61.25 59.3125 C-60.74758789 58.80630127 -60.24517578 58.30010254 -59.72753906 57.77856445 C-58.14917288 56.1881815 -56.57414991 54.59455555 -55 53 C-43.34465167 41.19356382 -43.34465167 41.19356382 -37.015625 35.79296875 C-32.64549553 31.90558614 -28.60458053 27.66346978 -24.5 23.5 C-19.05243488 17.97427756 -13.63426262 12.50860177 -7.69824219 7.50390625 C-5.92275543 5.9315948 -4.35351594 4.24567514 -2.75 2.5 C-1.8425 1.675 -0.935 0.85 0 0 Z " fill="#0295D6" transform="translate(508,384)"/>
<path d="M0 0 C2.90891854 1.52799538 4.85612672 3.58792819 7.14941406 5.93798828 C7.63528992 6.43048065 8.12116577 6.92297302 8.62176514 7.4303894 C10.17471578 9.00669806 11.71719145 10.59276904 13.25878906 12.18017578 C15.28092828 14.24913269 17.30745901 16.31370811 19.33691406 18.37548828 C19.82877197 18.87602722 20.32062988 19.37656616 20.82739258 19.89227295 C24.16601035 23.26688773 27.62297085 26.43077721 31.234375 29.5078125 C34.14128083 32.04275598 36.81478802 34.79799188 39.50878906 37.55517578 C42.89658566 40.98555574 46.26100995 44.37802053 49.94628906 47.49267578 C54.52230668 51.36917478 58.65865108 55.68042258 62.87353516 59.93945312 C66.41798703 63.50674173 70.02765778 66.89322335 73.87207031 70.13720703 C77.55088054 73.43939317 80.98620163 76.99352306 84.44262695 80.52612305 C84.9749292 81.0668042 85.50723145 81.60748535 86.05566406 82.16455078 C86.52842773 82.64891602 87.00119141 83.13328125 87.48828125 83.63232422 C88.98495696 85.15997608 88.98495696 85.15997608 91.07543945 86.13514709 C93.54834504 88.59101418 93.48053775 90.43026076 93.50646973 93.82264709 C93.48489807 94.99868752 93.48489807 94.99868752 93.46289062 96.19848633 C93.46347473 97.02797791 93.46405884 97.85746948 93.46466064 98.71209717 C93.46187233 101.45578763 93.43074571 104.19839371 93.39941406 106.94189453 C93.39195432 108.8433218 93.38626013 110.74475676 93.38226318 112.64619446 C93.36698587 117.65232547 93.32768597 122.65799273 93.28344727 127.66394043 C93.24253979 132.77150193 93.22426184 137.87913832 93.20410156 142.98681641 C93.16119376 153.00980669 93.09291704 163.03245268 93.00878906 173.05517578 C90.11634572 171.66558621 88.07502646 170.35479509 85.83691406 168.04345703 C84.97042236 167.15956299 84.97042236 167.15956299 84.08642578 166.2578125 C83.48330566 165.63406738 82.88018555 165.01032227 82.25878906 164.36767578 C77.99233587 160.02235619 73.71605939 155.82484211 69.06347656 151.89111328 C65.75494162 148.9348178 62.66719534 145.75637964 59.57080078 142.58007812 C56.85607892 139.81738972 54.06918822 137.20851763 51.13378906 134.68017578 C46.16345377 130.38074126 41.60775122 125.70489892 37.00878906 121.01611328 C33.12334574 117.08513742 29.13351491 113.37659492 24.94628906 109.77001953 C21.82367667 107.00625574 18.92542062 104.03293187 16.00878906 101.05517578 C10.28386454 95.27734353 10.28386454 95.27734353 4.38378906 89.68017578 C3.81402344 89.15681641 3.24425781 88.63345703 2.65722656 88.09423828 C0.7695772 86.69968341 0.7695772 86.69968341 -2.99121094 87.05517578 C-4.97491545 88.50290679 -4.97491545 88.50290679 -6.81933594 90.52783203 C-7.53734375 91.26324219 -8.25535156 91.99865234 -8.99511719 92.75634766 C-9.73632812 93.53558594 -10.47753906 94.31482422 -11.24121094 95.11767578 C-16.05335552 100.10504055 -20.87939483 104.92365645 -26.14257812 109.43579102 C-28.89370394 111.84575107 -31.4415784 114.43549839 -33.99121094 117.05517578 C-37.14293534 120.29348602 -40.34218367 123.39179096 -43.77246094 126.33642578 C-48.58910472 130.50291423 -53.02610752 135.01840137 -57.49121094 139.55517578 C-62.60115734 144.7471438 -67.73378529 149.80316333 -73.26269531 154.54931641 C-75.44640393 156.45173374 -77.47511465 158.47704576 -79.49121094 160.55517578 C-89.74247997 170.9308103 -89.74247997 170.9308103 -93.99121094 173.05517578 C-94.29357596 162.18058322 -94.52397726 151.30700367 -94.66476917 140.42905045 C-94.73237629 135.37663679 -94.82391842 130.32711582 -94.97192383 125.27636719 C-95.11409453 120.39368463 -95.19108639 115.51376705 -95.2246151 110.62917328 C-95.24847756 108.77420276 -95.29508213 106.91936927 -95.36570168 105.0655899 C-95.92347431 89.80478513 -95.92347431 89.80478513 -91.13761902 84.28730774 C-87.99898267 81.18719878 -84.56262979 78.63503523 -80.99121094 76.05517578 C-79.75611123 74.90362575 -78.54311112 73.72664287 -77.37792969 72.50439453 C-73.44274196 68.47808813 -69.56719121 64.5181005 -65.29199219 60.85595703 C-60.09300338 56.3558265 -55.31601331 51.44920057 -50.49121094 46.55517578 C-40.47260139 36.39282721 -40.47260139 36.39282721 -36.12792969 32.69189453 C-30.1874365 27.60498094 -24.79616125 21.92727291 -19.30371094 16.36767578 C-17.09443185 14.13164458 -14.88174381 11.89906642 -12.66699219 9.66845703 C-12.17105057 9.16421707 -11.67510895 8.65997711 -11.16413879 8.14045715 C-3.16713402 0.08776021 -3.16713402 0.08776021 0 0 Z " fill="#0395D5" transform="translate(509.9912109375,510.94482421875)"/>
<path d="M0 0 C5.66146532 3.52464767 7.93032314 8.44304044 9.56640625 14.66015625 C10.51139732 20.20466138 9.90782728 24.5166382 7.3203125 29.5 C2.43574073 35.30867994 -1.93440522 38.51490368 -9.46484375 39.609375 C-16.32968783 40.11144517 -20.50145711 38.56004842 -25.890625 34.30859375 C-30.40257678 29.88889378 -32.58407097 24.60320278 -33.08984375 18.32421875 C-32.7709582 11.55108968 -29.91210724 5.8490554 -24.9921875 1.25 C-16.70871092 -3.92314393 -8.71998271 -4.37518296 0 0 Z " fill="#F76843" transform="translate(519.9921875,312.75)"/>
<path d="M0 0 C1.65 0 3.3 0 5 0 C5 3.96 5 7.92 5 12 C3.35 12 1.7 12 0 12 C0 8.04 0 4.08 0 0 Z " fill="#D8DBDE" transform="translate(710,532)"/>
<path d="M0 0 C0.33 1.32 0.66 2.64 1 4 C-1.88211302 4.96070434 -3.69850044 5.10581883 -6.6875 5.0625 C-7.89986328 5.04896484 -7.89986328 5.04896484 -9.13671875 5.03515625 C-10.05904297 5.01775391 -10.05904297 5.01775391 -11 5 C-11 3.68 -11 2.36 -11 1 C-7.26562152 0.12132271 -3.83225427 -0.08912219 0 0 Z " fill="#BCBDBD" transform="translate(546,731)"/>
<path d="M0 0 C1.32 0 2.64 0 4 0 C4 3.96 4 7.92 4 12 C2.68 12 1.36 12 0 12 C0 8.04 0 4.08 0 0 Z " fill="#B7BABA" transform="translate(304,511)"/>
<path d="M0 0 C1.32 0 2.64 0 4 0 C4 3.96 4 7.92 4 12 C2.68 12 1.36 12 0 12 C0 8.04 0 4.08 0 0 Z " fill="#B9BCBE" transform="translate(710,510)"/>
<path d="M0 0 C0.99 0 1.98 0 3 0 C4.99785435 4.1205746 5.17835515 7.45194365 5 12 C3.68 12 2.36 12 1 12 C0.01751476 7.9472484 -0.08159574 4.16138263 0 0 Z " fill="#B9BABC" transform="translate(707,488)"/>
<path d="M0 0 C1.32 0.33 2.64 0.66 4 1 C3.21681311 4.91593446 1.60820142 8.36406635 0 12 C-1.32 11.67 -2.64 11.34 -4 11 C-2.7874262 7.27566618 -1.49140021 3.62197194 0 0 Z " fill="#BCBDBD" transform="translate(691,616)"/>
<path d="M0 0 C1.32 0.33 2.64 0.66 4 1 C4.66 4.3 5.32 7.6 6 11 C4.68 11.33 3.36 11.66 2 12 C0.70756464 7.8803623 -0.26252625 4.33168317 0 0 Z " fill="#BDBEBE" transform="translate(309,576)"/>
<path d="M0 0 C3.43595166 1.52708963 6.11912454 3.59927045 9 6 C8.67 6.99 8.34 7.98 8 9 C4.00544473 8.38545304 1.25533664 6.29353263 -2 4 C-1.34 2.68 -0.68 1.36 0 0 Z " fill="#BCBCBC" transform="translate(628,363)"/>
<path d="M0 0 C4.16138263 -0.08159574 7.9472484 0.01751476 12 1 C12 2.32 12 3.64 12 5 C8.04 4.67 4.08 4.34 0 4 C0 2.68 0 1.36 0 0 Z " fill="#B7B8B8" transform="translate(470,731)"/>
<path d="M0 0 C0 0.99 0 1.98 0 3 C-1.26839526 3.50615298 -2.53983102 4.00469099 -3.8125 4.5 C-4.87404297 4.91765625 -4.87404297 4.91765625 -5.95703125 5.34375 C-8 6 -8 6 -11 6 C-11 4.68 -11 3.36 -11 2 C-3.57142857 -1.57142857 -3.57142857 -1.57142857 0 0 Z " fill="#B9BBBB" transform="translate(588,720)"/>
<path d="M0 0 C3.48670834 1.1094072 6.77484237 2.26337666 10 4 C9.67 5.32 9.34 6.64 9 8 C5.51329166 6.8905928 2.22515763 5.73662334 -1 4 C-0.67 2.68 -0.34 1.36 0 0 Z " fill="#BABABA" transform="translate(411,709)"/>
<path d="M0 0 C7.42857143 1 7.42857143 1 11 2 C11 3.32 11 4.64 11 6 C6.80530429 5.40075776 2.99000166 4.42500059 -1 3 C-0.67 2.01 -0.34 1.02 0 0 Z " fill="#BEBEBD" transform="translate(450,726)"/>
<path d="M0 0 C0.66 0 1.32 0 2 0 C5.57142857 7.28571429 5.57142857 7.28571429 4 12 C1 11 1 11 -0.1875 8.75 C-1.00525547 5.98221224 -1.23885231 3.86622776 -1 1 C-0.67 0.67 -0.34 0.34 0 0 Z " fill="#B2B4B4" transform="translate(316,596)"/>
<path d="M0 0 C1.32 0 2.64 0 4 0 C3.34 3.63 2.68 7.26 2 11 C0.68 11 -0.64 11 -2 11 C-1.125 3.375 -1.125 3.375 0 0 Z " fill="#BBBCBC" transform="translate(705,576)"/>
<path d="M0 0 C1.32 0 2.64 0 4 0 C3.67 3.63 3.34 7.26 3 11 C1.68 11 0.36 11 -1 11 C-1.14285714 3.57142857 -1.14285714 3.57142857 0 0 Z " fill="#B6B9B9" transform="translate(709,554)"/>
<path d="M0 0 C1.32 0 2.64 0 4 0 C4.33 3.96 4.66 7.92 5 12 C3.68 12 2.36 12 1 12 C0.67 8.04 0.34 4.08 0 0 Z " fill="#B6B6B6" transform="translate(305,554)"/>
<path d="M0 0 C3.39417765 3.12621626 5.6062718 5.56541027 7 10 C6.01 10.33 5.02 10.66 4 11 C2.99421411 9.71283353 1.99553202 8.42011342 1 7.125 C0.443125 6.40570313 -0.11375 5.68640625 -0.6875 4.9453125 C-2 3 -2 3 -2 1 C-1.34 0.67 -0.68 0.34 0 0 Z " fill="#B8B8B8" transform="translate(674,409)"/>
<path d="M0 0 C3.63 0 7.26 0 11 0 C11 1.32 11 2.64 11 4 C7.37 4 3.74 4 0 4 C0 2.68 0 1.36 0 0 Z " fill="#BDBFBD" transform="translate(514,734)"/>
<path d="M0 0 C3.63 0 7.26 0 11 0 C11 1.32 11 2.64 11 4 C7.37 4 3.74 4 0 4 C0 2.68 0 1.36 0 0 Z " fill="#BEBEBE" transform="translate(492,734)"/>
<path d="M0 0 C2.72647685 2.35468455 3.98756342 4.5408417 5 8 C4.625 10.3125 4.625 10.3125 4 12 C3.34 12 2.68 12 2 12 C1.32591692 10.73308493 0.66099503 9.46129251 0 8.1875 C-0.37125 7.47980469 -0.7425 6.77210938 -1.125 6.04296875 C-2 4 -2 4 -2 1 C-1.34 0.67 -0.68 0.34 0 0 Z " fill="#B6B6B7" transform="translate(325,616)"/>
<path d="M0 0 C1.32 0 2.64 0 4 0 C3.69078116 1.45903258 3.37751201 2.91720722 3.0625 4.375 C2.88847656 5.18710937 2.71445312 5.99921875 2.53515625 6.8359375 C2 9 2 9 1 11 C-0.32 10.67 -1.64 10.34 -3 10 C-2.01 6.7 -1.02 3.4 0 0 Z " fill="#B6B7B7" transform="translate(699,597)"/>
<path d="M0 0 C0.99 0 1.98 0 3 0 C4.80230168 3.82989106 5.19622241 6.78121808 5 11 C4.01 11 3.02 11 2 11 C1.46770674 9.73392393 0.94955456 8.46189588 0.4375 7.1875 C0.14746094 6.47980469 -0.14257812 5.77210938 -0.44140625 5.04296875 C-1 3 -1 3 0 0 Z " fill="#B1B4B5" transform="translate(702,467)"/>
<path d="M0 0 C1.32 0.33 2.64 0.66 4 1 C2.66511872 4.59391114 1.03977277 7.75490696 -1 11 C-1.99 10.67 -2.98 10.34 -4 10 C-3.43454163 6.04179141 -2.19097652 3.3340947 0 0 Z " fill="#AFB1B0" transform="translate(330,429)"/>
<path d="M0 0 C4.24822374 0.47202486 6.19989709 2.96655518 9 6 C8.67 6.99 8.34 7.98 8 9 C4.06326356 7.68775452 1.77280706 6.08089673 -1 3 C-0.67 2.01 -0.34 1.02 0 0 Z " fill="#B8B9B8" transform="translate(644,377)"/>
<path d="M0 0 C1.48484412 0.39595843 2.9628831 0.81750706 4.4375 1.25 C5.26121094 1.48203125 6.08492188 1.7140625 6.93359375 1.953125 C9 3 9 3 9.78515625 5.109375 C9.85605469 5.73328125 9.92695313 6.3571875 10 7 C5.94393835 6.53199289 2.53411321 6.12046792 -1 4 C-0.67 2.68 -0.34 1.36 0 0 Z " fill="#B5B6B5" transform="translate(430,718)"/>
<path d="M0 0 C0.66 0.33 1.32 0.66 2 1 C1.82701599 3.33528415 1.29774631 4.69177582 -0.33203125 6.37890625 C-4.57211538 10 -4.57211538 10 -7 10 C-7.33 8.68 -7.66 7.36 -8 6 C-5.36 4.02 -2.72 2.04 0 0 Z " fill="#B7B8B7" transform="translate(640,685)"/>
<path d="M0 0 C0.99 0 1.98 0 3 0 C4.421875 1.42578125 4.421875 1.42578125 5.75 3.3125 C6.19859375 3.92738281 6.6471875 4.54226563 7.109375 5.17578125 C8 7 8 7 7 10 C3.21282653 8.51218185 1.22592999 6.38011591 -1 3 C-0.67 2.01 -0.34 1.02 0 0 Z " fill="#B7B7B7" transform="translate(346,654)"/>
<path d="M0 0 C0.99 0.33 1.98 0.66 3 1 C2.39009109 4.55780196 1.4216319 7.6828589 0 11 C-1.32 11 -2.64 11 -4 11 C-3.39301257 6.87248551 -1.96189209 3.6678852 0 0 Z " fill="#B8B9B9" transform="translate(321,448)"/>
<path d="M0 0 C1.890625 0.21484375 1.890625 0.21484375 4 1 C5.046875 3.06640625 5.046875 3.06640625 5.75 5.5625 C5.99234375 6.38878906 6.2346875 7.21507812 6.484375 8.06640625 C6.65453125 8.70449219 6.8246875 9.34257812 7 10 C5.68 10.33 4.36 10.66 3 11 C2.49384702 9.73160474 1.99530901 8.46016898 1.5 7.1875 C1.2215625 6.47980469 0.943125 5.77210938 0.65625 5.04296875 C0 3 0 3 0 0 Z " fill="#B6B7B7" transform="translate(694,447)"/>
<path d="M0 0 C1.32 0 2.64 0 4 0 C8 6.625 8 6.625 8 10 C6.68 10 5.36 10 4 10 C0 3.375 0 3.375 0 0 Z " fill="#B3B5B5" transform="translate(684,428)"/>
<path d="M0 0 C0 0.99 0 1.98 0 3 C-1.42578125 4.421875 -1.42578125 4.421875 -3.3125 5.75 C-3.92738281 6.19859375 -4.54226563 6.6471875 -5.17578125 7.109375 C-7 8 -7 8 -10 7 C-10 6.01 -10 5.02 -10 4 C-8.57421875 2.578125 -8.57421875 2.578125 -6.6875 1.25 C-6.07261719 0.80140625 -5.45773437 0.3528125 -4.82421875 -0.109375 C-3 -1 -3 -1 0 0 Z " fill="#B6B7B6" transform="translate(391,366)"/>
<path d="M0 0 C0.33 1.32 0.66 2.64 1 4 C-5.4 8.06153846 -5.4 8.06153846 -8.4375 7.75 C-8.953125 7.5025 -9.46875 7.255 -10 7 C-10 6.34 -10 5.68 -10 5 C-8.3203125 3.7109375 -8.3203125 3.7109375 -6.125 2.375 C-5.40570313 1.92898438 -4.68640625 1.48296875 -3.9453125 1.0234375 C-2 0 -2 0 0 0 Z " fill="#BABBBA" transform="translate(408,353)"/>
<path d="M0 0 C0 1.32 0 2.64 0 4 C-4.12168689 5.62950412 -6.70700357 6.26264601 -11 5 C-11 4.01 -11 3.02 -11 2 C-9.5422647 1.664061 -8.08378894 1.33133376 -6.625 1 C-5.40683594 0.7215625 -5.40683594 0.7215625 -4.1640625 0.4375 C-2 0 -2 0 0 0 Z " fill="#BDBEBF" transform="translate(567,726)"/>
<path d="M0 0 C-1.45124634 3.82601307 -3.35774704 5.22329124 -7 7 C-7.99 7 -8.98 7 -10 7 C-10 5.68 -10 4.36 -10 3 C-3.375 -1.125 -3.375 -1.125 0 0 Z " fill="#B3B4B5" transform="translate(625,700)"/>
<path d="M0 0 C0.99 0.33 1.98 0.66 3 1 C1.68775452 4.93673644 0.08089673 7.22719294 -3 10 C-3.99 9.67 -4.98 9.34 -6 9 C-4.68775452 5.06326356 -3.08089673 2.77280706 0 0 Z " fill="#B7BAB9" transform="translate(669,654)"/>
<path d="M0 0 C0.99 0 1.98 0 3 0 C2.46884894 4.51478398 0.63379708 7.34666857 -2 11 C-2.99 10.01 -3.98 9.02 -5 8 C-4.24266726 6.6589523 -3.46867264 5.32730219 -2.6875 4 C-2.25824219 3.2575 -1.82898438 2.515 -1.38671875 1.75 C-0.70029297 0.88375 -0.70029297 0.88375 0 0 Z " fill="#B2B4B4" transform="translate(681,636)"/>
<path d="M0 0 C0.99 0 1.98 0 3 0 C6.22265625 5.17578125 6.22265625 5.17578125 7 7 C6.67 7.99 6.34 8.98 6 10 C2.19118361 8.55527654 0.70257114 6.67396929 -1 3 C-0.67 2.01 -0.34 1.02 0 0 Z " fill="#AEB0B0" transform="translate(334,636)"/>
<path d="M0 0 C0.99 0 1.98 0 3 0 C2.67 3.63 2.34 7.26 2 11 C0.68 11 -0.64 11 -2 11 C-1.85957123 9.35369672 -1.71250671 7.70795821 -1.5625 6.0625 C-1.48128906 5.14597656 -1.40007812 4.22945313 -1.31640625 3.28515625 C-1 1 -1 1 0 0 Z " fill="#B9BABA" transform="translate(308,490)"/>
<path d="M0 0 C4.06623972 1.35541324 5.53046818 3.57009469 8 7 C7.67 7.99 7.34 8.98 7 10 C6.01 10 5.02 10 4 10 C1.25 7.25 1.25 7.25 -1 4 C-0.8125 1.625 -0.8125 1.625 0 0 Z " fill="#B2B3B3" transform="translate(660,392)"/>
<path d="M0 0 C3.95820859 0.56545837 6.6659053 1.80902348 10 4 C9.67 5.32 9.34 6.64 9 8 C5.56801397 6.76067171 2.69674368 5.49698489 0 3 C0 2.01 0 1.02 0 0 Z " fill="#B5B6B6" transform="translate(609,352)"/>
<path d="M0 0 C1.48484412 0.39595843 2.9628831 0.81750706 4.4375 1.25 C5.26121094 1.48203125 6.08492187 1.7140625 6.93359375 1.953125 C9 3 9 3 9.78515625 5.109375 C9.85605469 5.73328125 9.92695312 6.3571875 10 7 C6.0507432 6.44894091 2.65079826 5.61064629 -1 4 C-0.67 2.68 -0.34 1.36 0 0 Z " fill="#BBBBBB" transform="translate(590,342)"/>
<path d="M0 0 C4.3177458 0.50797009 8.03302114 1.19682779 12 3 C11.67 3.99 11.34 4.98 11 6 C10.29875 5.855625 9.5975 5.71125 8.875 5.5625 C5.92443859 4.98521625 2.96729849 4.48304859 0 4 C0 2.68 0 1.36 0 0 Z " fill="#BCBBBA" transform="translate(569,335)"/>
<path d="M0 0 C-1.47559669 4.42679007 -3.90057368 4.91432696 -8 7 C-8.66 7 -9.32 7 -10 7 C-10.33 5.68 -10.66 4.36 -11 3 C-9.73581754 2.30034557 -8.46334598 1.61565237 -7.1875 0.9375 C-6.47980469 0.55464844 -5.77210938 0.17179688 -5.04296875 -0.22265625 C-3 -1 -3 -1 0 0 Z " fill="#B7B9BA" transform="translate(607,711)"/>
<path d="M0 0 C3.43198603 1.23932829 6.30325632 2.50301511 9 5 C9 5.99 9 6.98 9 8 C4.59885603 7.49701212 2.28804981 5.91227269 -1 3 C-0.67 2.01 -0.34 1.02 0 0 Z " fill="#B6B6B6" transform="translate(393,698)"/>
<path d="M0 0 C3.43595166 1.52708963 6.11912454 3.59927045 9 6 C8.67 6.99 8.34 7.98 8 9 C4.06326356 7.68775452 1.77280706 6.08089673 -1 3 C-0.67 2.01 -0.34 1.02 0 0 Z " fill="#B5B6B5" transform="translate(376,685)"/>
<path d="M0 0 C0.99 0 1.98 0 3 0 C2.49942848 4.38000076 1.06806466 6.84169815 -2 10 C-2.99 10 -3.98 10 -5 10 C-4.49942848 5.61999924 -3.06806466 3.15830185 0 0 Z " fill="#B8B8B8" transform="translate(342,411)"/>
<path d="M0 0 C0.99 0.33 1.98 0.66 3 1 C1.47291037 4.43595166 -0.59927045 7.11912454 -3 10 C-3.99 9.67 -4.98 9.34 -6 9 C-4.68775452 5.06326356 -3.08089673 2.77280706 0 0 Z " fill="#B1B2B0" transform="translate(356,394)"/>
<path d="M0 0 C-0.47202486 4.24822374 -2.96655518 6.19989709 -6 9 C-6.99 8.67 -7.98 8.34 -9 8 C-8.66410006 4.86493389 -7.97334828 3.974751 -5.625 1.75 C-3 0 -3 0 0 0 Z " fill="#B5B6B5" transform="translate(374,379)"/>
<path d="M0 0 C0.33 1.32 0.66 2.64 1 4 C-2.3 5.32 -5.6 6.64 -9 8 C-9.33 6.68 -9.66 5.36 -10 4 C-8.71086513 3.32845067 -7.41859796 2.66291141 -6.125 2 C-5.40570313 1.62875 -4.68640625 1.2575 -3.9453125 0.875 C-2 0 -2 0 0 0 Z " fill="#B9B9B8" transform="translate(427,343)"/>
<path d="M0 0 C4.2742558 1.5830577 6.26531794 4.50568404 9 8 C8.01 8.66 7.02 9.32 6 10 C3.69 7.69 1.38 5.38 -1 3 C-0.67 2.01 -0.34 1.02 0 0 Z " fill="#B1B3B3" transform="translate(360,670)"/>
<path d="M0 0 C0 0.99 0 1.98 0 3 C-6.625 6 -6.625 6 -10 6 C-10 4.68 -10 3.36 -10 2 C-6.49223216 0.39644899 -3.85645121 -0.22036864 0 0 Z " fill="#B8B7B6" transform="translate(447,336)"/>
<path d="M0 0 C0.99 0.33 1.98 0.66 3 1 C1.68775452 4.93673644 0.08089673 7.22719294 -3 10 C-3.99 9.67 -4.98 9.34 -6 9 C-4.47291037 5.56404834 -2.40072955 2.88087546 0 0 Z " fill="#B2B6B5" transform="translate(655,670)"/>
<path d="M0 0 C0.99 0 1.98 0 3 0 C3.19622241 4.21878192 2.80230168 7.17010894 1 11 C0.01 10.67 -0.98 10.34 -2 10 C-1.125 2.25 -1.125 2.25 0 0 Z " fill="#AFB1B2" transform="translate(313,469)"/>
<path d="M0 0 C0.99 0 1.98 0 3 0 C3 3.63 3 7.26 3 11 C2.01 11 1.02 11 0 11 C0 7.37 0 3.74 0 0 Z " fill="#ABADAE" transform="translate(304,533)"/>
<path d="M0 0 C0.99 0 1.98 0 3 0 C3 3.3 3 6.6 3 10 C2.01 10 1.02 10 0 10 C0 6.7 0 3.4 0 0 Z " fill="#A9ACAE" transform="translate(711,533)"/>
<path d="M0 0 C2.31 0.33 4.62 0.66 7 1 C6.67 2.32 6.34 3.64 6 5 C3.03 4.505 3.03 4.505 0 4 C0 2.68 0 1.36 0 0 Z " fill="#C8C7C6" transform="translate(552,330)"/>
<path d="M0 0 C0 1.32 0 2.64 0 4 C-1.98 4 -3.96 4 -6 4 C-6 3.01 -6 2.02 -6 1 C-3 0 -3 0 0 0 Z " fill="#B9B7B7" transform="translate(464,331)"/>
<path d="M0 0 C0.66 0 1.32 0 2 0 C2.33 0.66 2.66 1.32 3 2 C3.66 1.67 4.32 1.34 5 1 C5 2.65 5 4.3 5 6 C1.83884224 4.63016497 1.0072908 4.0109362 -1 1 C-0.67 0.67 -0.34 0.34 0 0 Z " fill="#229BDA" transform="translate(597,677)"/>
<path d="M0 0 C2.475 0.495 2.475 0.495 5 1 C5.33 2.65 5.66 4.3 6 6 C3.97945196 4.35830472 1.97956942 2.69088222 0 1 C0 0.67 0 0.34 0 0 Z " fill="#1A9AD1" transform="translate(530,615)"/>
<path d="M0 0 C0.99 0.33 1.98 0.66 3 1 C3 1.99 3 2.98 3 4 C0.69 3.67 -1.62 3.34 -4 3 C-2.1875 1.4375 -2.1875 1.4375 0 0 Z " fill="#BBBBBB" transform="translate(437,721)"/>
</svg>
